<svg width="576" height="512" xmlns="http://www.w3.org/2000/svg" xmlns:xlink="http://www.w3.org/1999/xlink" xml:space="preserve" overflow="hidden"><g transform="translate(3383 -445)"><path d="M-3151 682.2C-3119.2 667-3102.6 644-3102.6 608.2-3102.6 537.6-3155.2 520.4-3215.9 520.4L-3383 520.4-3383 874.8-3211.2 874.8C-3146.8 874.8-3086.3 843.9-3086.3 771.9-3086.3 727.4-3107.4 694.5-3151 682.2ZM-3305.1 580.9-3232 580.9C-3203.9 580.9-3178.6 588.8-3178.6 621.4-3178.6 651.5-3198.3 663.6-3226.1 663.6L-3305.1 663.6-3305.1 580.9ZM-3221.8 814.6-3305.1 814.6-3305.1 717-3220.2 717C-3185.9 717-3164.2 731.3-3164.2 767.6-3164.2 803.4-3190.1 814.6-3221.8 814.6ZM-2863.3 573.9-3007 573.9-3007 539-2863.3 539-2863.3 573.9ZM-2807 750.2C-2807 674.3-2851.4 611-2931.9 611-3010.1 611-3063.2 669.8-3063.2 746.8-3063.2 826.7-3012.9 881.5-2931.9 881.5-2870.6 881.5-2830.9 853.9-2811.8 795.2L-2874 795.2C-2880.7 817.1-2908.3 828.7-2929.7 828.7-2971 828.7-2992.7 804.5-2992.7 763.4L-2807.6 763.4C-2807.3 759.2-2807 754.7-2807 750.2ZM-2992.6 719C-2990.3 685.3-2967.9 664.2-2934.1 664.2-2898.7 664.2-2880.9 685-2877.9 719L-2992.6 719Z" fill="#0000F0"/></g></svg>