<svg width="448" height="512" xmlns="http://www.w3.org/2000/svg" xmlns:xlink="http://www.w3.org/1999/xlink" xml:space="preserve" overflow="hidden"><g transform="translate(1986 -1813)"><path d="M-1890 1813C-1943 1813-1986 1856-1986 1909L-1986 2229C-1986 2282-1943 2325-1890 2325L-1602 2325-1570 2325C-1552.3 2325-1538 2310.7-1538 2293-1538 2275.3-1552.3 2261-1570 2261L-1570 2197C-1552.3 2197-1538 2182.7-1538 2165L-1538 1845C-1538 1827.3-1552.3 1813-1570 1813L-1602 1813-1890 1813ZM-1890 2197-1634 2197-1634 2261-1890 2261C-1907.7 2261-1922 2246.7-1922 2229-1922 2211.3-1907.7 2197-1890 2197ZM-1858 1957C-1858 1948.2-1850.8 1941-1842 1941L-1650 1941C-1641.2 1941-1634 1948.2-1634 1957-1634 1965.8-1641.2 1973-1650 1973L-1842 1973C-1850.8 1973-1858 1965.8-1858 1957ZM-1842 2005-1650 2005C-1641.2 2005-1634 2012.2-1634 2021-1634 2029.8-1641.2 2037-1650 2037L-1842 2037C-1850.8 2037-1858 2029.8-1858 2021-1858 2012.2-1850.8 2005-1842 2005Z"/></g></svg>