<svg width="512" height="512" xmlns="http://www.w3.org/2000/svg" xmlns:xlink="http://www.w3.org/1999/xlink" xml:space="preserve" overflow="hidden"><g transform="translate(1667 -1226)"><path d="M-1483 1274-1339 1274C-1334.6 1274-1331 1277.6-1331 1282L-1331 1322-1491 1322-1491 1282C-1491 1277.6-1487.4 1274-1483 1274ZM-1539 1282-1539 1322-1603 1322C-1638.3 1322-1667 1350.7-1667 1386L-1667 1482-1475 1482-1347 1482-1155 1482-1155 1386C-1155 1350.7-1183.7 1322-1219 1322L-1283 1322-1283 1282C-1283 1251.1-1308.1 1226-1339 1226L-1483 1226C-1513.9 1226-1539 1251.1-1539 1282ZM-1155 1514-1347 1514-1347 1546C-1347 1563.7-1361.3 1578-1379 1578L-1443 1578C-1460.7 1578-1475 1563.7-1475 1546L-1475 1514-1667 1514-1667 1642C-1667 1677.3-1638.3 1706-1603 1706L-1219 1706C-1183.7 1706-1155 1677.3-1155 1642L-1155 1514Z"/></g></svg>