<svg width="640" height="512" xmlns="http://www.w3.org/2000/svg" xmlns:xlink="http://www.w3.org/1999/xlink" xml:space="preserve" overflow="hidden"><defs><clipPath id="clip0"><rect x="-968" y="-448" width="640" height="512"/></clipPath></defs><g clip-path="url(#clip0)" transform="translate(968 448)"><path d="M-648-416C-656.1-416-664.1-414.6-671.7-411.9L-952.2-310.6C-961.7-307.1-968-298.1-968-288-968-277.9-961.7-268.9-952.2-265.4L-894.3-244.5C-910.7-218.7-920-188.2-920-156.1L-920-128C-920-99.6-930.8-70.3-942.3-47.2-948.8-34.2-956.2-21.4-964.8-9.60001-968-5.29999-968.9 0.299988-967.1 5.39999-965.3 10.5-961.1 14.3-955.9 15.6L-891.9 31.6C-887.7 32.7-883.2 31.9-879.5 29.6-875.8 27.3-873.2 23.5-872.4 19.2-863.8-23.6-868.1-62-874.5-89.5-877.7-103.7-882-118.2-888-131.5L-888-156.1C-888-186.3-877.8-214.8-860.1-237.6-847.2-253.1-830.5-265.6-810.9-273.3L-653.9-335C-645.7-338.2-636.4-334.2-633.2-326-630-317.8-634-308.5-642.2-305.3L-799.2-243.6C-811.6-238.7-822.5-231.2-831.4-222L-671.8-164.4C-664.2-161.7-656.2-160.3-648.1-160.3-640-160.3-632-161.7-624.4-164.4L-343.8-265.4C-334.3-268.8-328-277.9-328-288-328-298.1-334.3-307.1-343.8-310.6L-624.3-411.9C-631.9-414.6-639.9-416-648-416ZM-840-40C-840-4.70001-754 32-648 32-542 32-456-4.70001-456-40L-471.3-185.4-613.5-134C-624.6-130-636.3-128-648-128-659.7-128-671.5-130-682.5-134L-824.7-185.4-840-40Z"/></g></svg>