<svg width="512" height="512" xmlns="http://www.w3.org/2000/svg" xmlns:xlink="http://www.w3.org/1999/xlink" xml:space="preserve" overflow="hidden"><g transform="translate(1270 -124)"><path d="M-766 380C-766 243-877 132-1014 132-1151 132-1262 243-1262 380-1262 503.78-1171.31 606.38-1052.75 625L-1052.75 451.69-1115.75 451.69-1115.75 380-1052.75 380-1052.75 325.36C-1052.75 263.21-1015.75 228.88-959.08 228.88-931.94 228.88-903.56 233.72-903.56 233.72L-903.56 294.72-934.84 294.72C-965.64 294.72-975.25 313.84-975.25 333.45L-975.25 380-906.47 380-917.47 451.69-975.25 451.69-975.25 625C-856.69 606.38-766 503.78-766 380Z" fill="#0070C0"/></g></svg>