<svg width="297" height="264" xmlns="http://www.w3.org/2000/svg" xmlns:xlink="http://www.w3.org/1999/xlink" xml:space="preserve" overflow="hidden"><g transform="translate(-5172 -535)"><path d="M5468.9 666.742C5468.9 676.023 5461.16 683.294 5452.4 683.294L5435.9 683.294 5436.26 765.897C5436.26 767.289 5436.15 768.681 5436 770.073L5436 778.375C5436 789.77 5426.77 799 5415.38 799L5407.12 799C5406.56 799 5405.99 799 5405.42 798.948 5404.7 799 5403.98 799 5403.26 799L5386.5 799 5374.12 799C5362.73 799 5353.5 789.77 5353.5 778.375L5353.5 766 5353.5 733C5353.5 723.873 5346.13 716.5 5337 716.5L5304 716.5C5294.87 716.5 5287.5 723.873 5287.5 733L5287.5 766 5287.5 778.375C5287.5 789.77 5278.27 799 5266.88 799L5254.5 799 5238.05 799C5237.28 799 5236.5 798.948 5235.73 798.897 5235.11 798.948 5234.49 799 5233.88 799L5225.62 799C5214.23 799 5205 789.77 5205 778.375L5205 720.625C5205 720.161 5205 719.645 5205.05 719.181L5205.05 683.294 5188.5 683.294C5179.22 683.294 5172 676.075 5172 666.742 5172 662.102 5173.55 657.977 5177.16 654.367L5309.36 539.125C5312.97 535.516 5317.1 535 5320.71 535 5324.32 535 5328.44 536.031 5331.53 538.609L5463.23 654.367C5467.35 657.977 5469.41 662.102 5468.9 666.742Z" fill="#0000F0"/></g></svg>