<svg width="448" height="512" xmlns="http://www.w3.org/2000/svg" xmlns:xlink="http://www.w3.org/1999/xlink" xml:space="preserve" overflow="hidden"><defs><clipPath id="clip0"><rect x="-2468" y="535" width="448" height="512"/></clipPath></defs><g clip-path="url(#clip0)" transform="translate(2468 -535)"><path d="M-2243.9 676C-2307.5 676-2358.8 727.3-2358.8 790.9-2358.8 854.5-2307.5 905.8-2243.9 905.8-2180.3 905.8-2129 854.5-2129 790.9-2129 727.3-2180.3 676-2243.9 676ZM-2243.9 865.6C-2285 865.6-2318.6 832.1-2318.6 790.9-2318.6 749.7-2285.1 716.2-2243.9 716.2-2202.7 716.2-2169.2 749.7-2169.2 790.9-2169.2 832.1-2202.8 865.6-2243.9 865.6ZM-2097.5 671.3C-2097.5 686.2-2109.5 698.1-2124.3 698.1-2139.2 698.1-2151.1 686.1-2151.1 671.3-2151.1 656.5-2139.1 644.5-2124.3 644.5-2109.5 644.5-2097.5 656.5-2097.5 671.3ZM-2021.4 698.5C-2023.1 662.6-2031.3 630.8-2057.6 604.6-2083.8 578.4-2115.6 570.2-2151.5 568.4-2188.5 566.3-2299.4 566.3-2336.4 568.4-2372.2 570.1-2404 578.3-2430.3 604.5-2456.6 630.7-2464.7 662.5-2466.5 698.4-2468.6 735.4-2468.6 846.3-2466.5 883.3-2464.8 919.2-2456.6 951-2430.3 977.2-2404 1003.4-2372.3 1011.6-2336.4 1013.4-2299.4 1015.5-2188.5 1015.5-2151.5 1013.4-2115.6 1011.7-2083.8 1003.5-2057.6 977.2-2031.4 951-2023.2 919.2-2021.4 883.3-2019.3 846.3-2019.3 735.5-2021.4 698.5ZM-2069.2 923C-2077 942.6-2092.1 957.7-2111.8 965.6-2141.3 977.3-2211.3 974.6-2243.9 974.6-2276.5 974.6-2346.6 977.2-2376 965.6-2395.6 957.8-2410.7 942.7-2418.6 923-2430.3 893.5-2427.6 823.5-2427.6 790.9-2427.6 758.3-2430.2 688.2-2418.6 658.8-2410.8 639.2-2395.7 624.1-2376 616.2-2346.5 604.5-2276.5 607.2-2243.9 607.2-2211.3 607.2-2141.2 604.6-2111.8 616.2-2092.2 624-2077.1 639.1-2069.2 658.8-2057.5 688.3-2060.2 758.3-2060.2 790.9-2060.2 823.5-2057.5 893.6-2069.2 923Z" fill="#0000F0"/></g></svg>