<svg width="202" height="231" xmlns="http://www.w3.org/2000/svg" xmlns:xlink="http://www.w3.org/1999/xlink" xml:space="preserve" overflow="hidden"><g transform="translate(1786 -481)"><path d="M187.571 14.4286 14.3835 14.4286C6.44777 14.4286 0 20.9665 0 28.9924L0 201.865C0 209.891 6.44777 216.429 14.3835 216.429L187.571 216.429C195.507 216.429 202 209.891 202 201.865L202 28.9924C202 20.9665 195.507 14.4286 187.571 14.4286ZM61.0509 187.571 31.1116 187.571 31.1116 91.1705 61.096 91.1705 61.096 187.571ZM46.0812 78.0045C36.4772 78.0045 28.7219 70.204 28.7219 60.6451 28.7219 51.0862 36.4772 43.2857 46.0812 43.2857 55.6402 43.2857 63.4406 51.0862 63.4406 60.6451 63.4406 70.2491 55.6853 78.0045 46.0812 78.0045ZM173.278 187.571 143.339 187.571 143.339 140.679C143.339 129.496 143.113 115.113 127.783 115.113 112.182 115.113 109.792 127.287 109.792 139.867L109.792 187.571 79.8531 187.571 79.8531 91.1705 108.575 91.1705 108.575 104.337 108.981 104.337C112.994 96.7616 122.778 88.7808 137.342 88.7808 167.642 88.7808 173.278 108.755 173.278 134.727L173.278 187.571Z" fill="#0070C0" transform="matrix(1 0 0 1.00062 -1786 481)"/></g></svg>