<svg width="154" height="205" xmlns="http://www.w3.org/2000/svg" xmlns:xlink="http://www.w3.org/1999/xlink" xml:space="preserve" overflow="hidden"><g transform="translate(-5244 124)"><path d="M86.3643 199.875C106.904 174.17 153.75 111.869 153.75 76.875 153.75 34.4336 119.316 0 76.875 0 34.4336 0 0 34.4336 0 76.875 0 111.869 46.8457 174.17 67.3857 199.875 72.3105 206.001 81.4395 206.001 86.3643 199.875ZM76.875 51.25C91.0272 51.25 102.5 62.7228 102.5 76.875 102.5 91.0272 91.0272 102.5 76.875 102.5 62.7228 102.5 51.25 91.0272 51.25 76.875 51.25 62.7228 62.7228 51.25 76.875 51.25Z" fill="#0000F0" transform="matrix(1.00163 0 0 1 5244 -124)"/></g></svg>