<svg width="407" height="407" xmlns="http://www.w3.org/2000/svg" xmlns:xlink="http://www.w3.org/1999/xlink" xml:space="preserve" overflow="hidden"><g transform="translate(3261 -1579)"><path d="M-3057.5 1642.59C-3141.84 1642.59-3211.4 1705.71-3221.57 1787.27-3214.1 1784.25-3205.99 1782.5-3197.41 1782.5-3176.34 1782.5-3159.25 1799.59-3159.25 1820.66L-3159.25 1922.41C-3159.25 1943.47-3176.34 1960.56-3197.41 1960.56-3232.54 1960.56-3261 1932.1-3261 1896.97L-3261 1884.25-3261 1846.09-3261 1807.94C-3261 1695.54-3169.9 1604.44-3057.5 1604.44-2945.1 1604.44-2854 1695.54-2854 1807.94L-2854 1846.09-2854 1884.25-2854 1896.97C-2854 1932.1-2882.46 1960.56-2917.59 1960.56-2938.66 1960.56-2955.75 1943.47-2955.75 1922.41L-2955.75 1820.66C-2955.75 1799.59-2938.66 1782.5-2917.59 1782.5-2909.01 1782.5-2900.9 1784.17-2893.43 1787.27-2903.6 1705.71-2973.16 1642.59-3057.5 1642.59Z"/></g></svg>