<svg width="200" height="207" xmlns="http://www.w3.org/2000/svg" xmlns:xlink="http://www.w3.org/1999/xlink" xml:space="preserve" overflow="hidden"><g transform="translate(2937 -1015)"><path d="M200 103.226C200 158.468 155.242 203.226 100 203.226 89.6774 203.226 79.7581 201.653 70.4032 198.75 74.4758 192.097 80.5645 181.21 82.8226 172.54 84.0323 167.863 89.0323 148.75 89.0323 148.75 92.2984 154.96 101.815 160.242 111.935 160.242 142.097 160.242 163.831 132.5 163.831 98.0242 163.831 65 136.855 40.2823 102.177 40.2823 59.0323 40.2823 36.0887 69.2339 36.0887 100.806 36.0887 115.484 43.9113 133.75 56.371 139.556 58.2661 140.444 59.2742 140.04 59.7177 138.226 60.0403 136.855 61.7339 130.04 62.5 126.895 62.7419 125.887 62.621 125 61.8145 124.032 57.7419 118.992 54.4355 109.798 54.4355 101.21 54.4355 79.1532 71.129 57.8226 99.5968 57.8226 124.153 57.8226 141.371 74.5564 141.371 98.5081 141.371 125.565 127.702 144.315 109.919 144.315 100.121 144.315 92.7419 136.21 95.121 126.25 97.9436 114.355 103.387 101.532 103.387 92.9436 103.387 85.2823 99.2742 78.871 90.7258 78.871 80.6855 78.871 72.621 89.2339 72.621 103.145 72.621 112.016 75.6048 117.984 75.6048 117.984 75.6048 117.984 65.7258 159.839 63.9113 167.661 61.8952 176.29 62.7016 188.468 63.5484 196.371 26.371 181.815 0 145.605 0 103.226 0 47.9839 44.7581 3.22581 100 3.22581 155.242 3.22581 200 47.9839 200 103.226Z" fill="#0000F0" transform="matrix(1 0 0 1.00266 -2937 1015)"/></g></svg>