<svg width="259" height="260" xmlns="http://www.w3.org/2000/svg" xmlns:xlink="http://www.w3.org/1999/xlink" xml:space="preserve" overflow="hidden"><g transform="translate(2585 -1223)"><path d="M259 129.5C259 129.955 259 130.411 259 130.866 258.798 149.33 242.003 161.875 223.539 161.875L174.016 161.875C160.61 161.875 149.734 172.751 149.734 186.156 149.734 187.876 149.937 189.546 150.24 191.164 151.303 196.324 153.528 201.281 155.704 206.289 158.789 213.27 161.824 220.201 161.824 227.536 161.824 243.622 150.898 258.241 134.812 258.899 133.041 258.949 131.271 259 129.449 259 57.9715 259 0 201.029 0 129.5 0 57.9715 57.9715 0 129.5 0 201.029 0 259 57.9715 259 129.5ZM64.75 145.688C64.75 136.747 57.5026 129.5 48.5625 129.5 39.6224 129.5 32.375 136.747 32.375 145.688 32.375 154.628 39.6224 161.875 48.5625 161.875 57.5026 161.875 64.75 154.628 64.75 145.688ZM64.75 97.125C73.6901 97.125 80.9375 89.8776 80.9375 80.9375 80.9375 71.9974 73.6901 64.75 64.75 64.75 55.8099 64.75 48.5625 71.9974 48.5625 80.9375 48.5625 89.8776 55.8099 97.125 64.75 97.125ZM145.688 48.5625C145.688 39.6224 138.44 32.375 129.5 32.375 120.56 32.375 113.312 39.6224 113.312 48.5625 113.312 57.5026 120.56 64.75 129.5 64.75 138.44 64.75 145.688 57.5026 145.688 48.5625ZM194.25 97.125C203.19 97.125 210.438 89.8776 210.438 80.9375 210.438 71.9974 203.19 64.75 194.25 64.75 185.31 64.75 178.062 71.9974 178.062 80.9375 178.062 89.8776 185.31 97.125 194.25 97.125Z" transform="matrix(1 0 0 1.00386 -2585 1223)"/></g></svg>