<svg width="225" height="224" xmlns="http://www.w3.org/2000/svg" xmlns:xlink="http://www.w3.org/1999/xlink" xml:space="preserve" overflow="hidden"><defs><clipPath id="clip0"><rect x="5019" y="-1111" width="225" height="224"/></clipPath></defs><g clip-path="url(#clip0)" transform="translate(-5019 1111)"><path d="M72.1437 10.7625C68.775 2.625 59.8937-1.70625 51.4062 0.6125L12.9062 11.1125C5.29375 13.2125 0 20.125 0 28 0 136.238 87.7625 224 196 224 203.875 224 210.787 218.706 212.887 211.094L223.387 172.594C225.706 164.106 221.375 155.225 213.238 151.856L171.238 134.356C164.106 131.381 155.838 133.438 150.981 139.431L133.306 161C102.506 146.431 77.5687 121.494 63 90.6937L84.5687 73.0625C90.5625 68.1625 92.6188 59.9375 89.6437 52.8062L72.1437 10.8063Z" fill="#0000F0" transform="matrix(1.00446 0 0 1 5019 -1111)"/></g></svg>