<svg width="640" height="512" xmlns="http://www.w3.org/2000/svg" xmlns:xlink="http://www.w3.org/1999/xlink" xml:space="preserve" overflow="hidden"><defs><clipPath id="clip0"><rect x="83" y="800" width="640" height="512"/></clipPath></defs><g clip-path="url(#clip0)" transform="translate(-83 -800)"><path d="M475.8 801.2C458.8 796.3 441.1 806.2 436.2 823.2L308.2 1271.2C303.3 1288.2 313.2 1305.9 330.2 1310.8 347.2 1315.7 364.9 1305.8 369.8 1288.8L497.8 840.8C502.7 823.8 492.8 806.1 475.8 801.2ZM556.4 921.3C543.9 933.8 543.9 954.1 556.4 966.6L645.7 1056 556.3 1145.4C543.8 1157.9 543.8 1178.2 556.3 1190.7 568.8 1203.2 589.1 1203.2 601.6 1190.7L713.6 1078.7C726.1 1066.2 726.1 1045.9 713.6 1033.4L601.6 921.4C589.1 908.9 568.8 908.9 556.3 921.4ZM249.7 921.3C237.2 908.8 216.9 908.8 204.4 921.3L92.4 1033.3C79.9 1045.8 79.9 1066.1 92.4 1078.6L204.4 1190.6C216.9 1203.1 237.2 1203.1 249.7 1190.6 262.2 1178.1 262.2 1157.8 249.7 1145.3L160.3 1056 249.7 966.6C262.2 954.1 262.2 933.8 249.7 921.3Z"/></g></svg>