<svg width="512" height="512" xmlns="http://www.w3.org/2000/svg" xmlns:xlink="http://www.w3.org/1999/xlink" xml:space="preserve" overflow="hidden"><defs><clipPath id="clip0"><rect x="-2276" y="1311" width="512" height="512"/></clipPath></defs><g clip-path="url(#clip0)" transform="translate(2276 -1311)"><path d="M-1773.71 1470.7-2007.71 1314.7C-2015.7 1309.79-2024.23 1309.74-2032.29 1314.7L-2266.29 1470.7C-2272.29 1474.7-2276 1481.85-2276 1488.99L-2276 1644.99C-2276 1652.13-2272.29 1659.27-2266.28 1663.27L-2032.29 1819.3C-2024.3 1824.21-2015.77 1824.26-2007.71 1819.3L-1773.71 1663.27C-1767.71 1659.28-1764 1652.13-1764 1644.99L-1764 1488.99C-1764 1481.85-1767.71 1474.7-1773.71 1470.7ZM-1998 1374.13-1825.71 1488.99-1902.57 1540.42-1998 1476.7-1998 1374.13ZM-2042 1374.13-2042 1476.7-2137.43 1540.42-2214.29 1488.99-2042 1374.13ZM-2232 1530.13-2176.86 1566.99-2232 1603.85-2232 1530.13ZM-2042 1759.85-2214.29 1644.99-2137.43 1593.56-2042 1657.28-2042 1759.85ZM-2020 1618.99-2097.72 1566.99-2020 1514.99-1942.29 1566.99-2020 1618.99ZM-1998 1759.85-1998 1657.28-1902.57 1593.56-1825.71 1644.99-1998 1759.85ZM-1808 1603.85-1863.14 1566.99-1808 1530.13-1808 1603.85Z" fill="#0000F0"/></g></svg>